<svg xmlns="http://www.w3.org/2000/svg" width="512" height="512" viewBox="0 0 512 512" version="1.1">
	<path d="M 425.441 76.468 C 424.374 77.276, 422.150 77.965, 420.500 78 C 418.850 78.035, 416.626 78.724, 415.559 79.532 C 414.491 80.339, 412.634 81, 411.431 81 C 410.229 81, 408.685 81.675, 408 82.500 C 407.315 83.325, 405.947 84, 404.959 84 C 403.971 84, 401.888 84.647, 400.331 85.439 C 398.774 86.230, 395.700 87.613, 393.500 88.513 C 387.081 91.136, 382.526 93.442, 382.167 94.250 C 381.983 94.662, 381.263 95, 380.567 95 C 379.870 95, 377.436 96.350, 375.159 98 C 372.881 99.650, 370.549 101, 369.977 101 C 369.405 101, 368.678 101.675, 368.362 102.500 C 368.045 103.325, 367.169 104, 366.415 104 C 365.660 104, 359.846 109.149, 353.493 115.443 C 342.973 125.867, 341.535 126.947, 337.348 127.575 C 331.875 128.396, 318.948 127.348, 317.572 125.972 C 314.914 123.314, 305.302 125.902, 301.076 130.413 C 299.017 132.610, 297.792 133, 292.948 133 C 289.099 133, 286.840 133.488, 286 134.500 C 285.315 135.325, 283.958 136, 282.985 136 C 282.011 136, 280.955 136.675, 280.638 137.500 C 280.245 138.526, 278.641 139, 275.566 139 C 270.533 139, 268.073 137.140, 262.128 128.840 C 259.750 125.521, 257.381 123.594, 253.895 122.145 C 251.203 121.026, 249 119.636, 249 119.055 C 249 118.475, 248.325 118, 247.500 118 C 246.675 118, 246 118.668, 246 119.484 C 246 120.301, 244.697 122.427, 243.104 124.209 C 240.328 127.317, 240.096 127.389, 237.447 125.975 C 235.928 125.164, 234.478 123.713, 234.226 122.750 C 233.973 121.787, 233.418 121, 232.992 121 C 232.566 121, 231.934 119.875, 231.589 118.500 C 231.244 117.125, 230.295 116, 229.481 116 C 228.666 116, 228 115.325, 228 114.500 C 228 113.458, 226.951 113, 224.562 113 C 222.138 113, 220.154 112.115, 217.839 110 C 214.944 107.356, 213.833 107, 208.477 107 C 205.015 107, 201.873 106.473, 201.175 105.775 C 198.517 103.117, 190.201 101.402, 183.740 102.179 C 180.308 102.593, 158.258 103.238, 134.740 103.615 L 91.979 104.299 92.240 240.923 C 92.497 376.035, 92.522 377.569, 94.500 379.554 C 99.525 384.594, 99.227 384.603, 108.458 379.136 C 112.628 376.666, 115.802 378.249, 116.204 383 C 116.475 386.207, 116.793 386.526, 120 386.812 C 123.706 387.142, 126.939 390.139, 126.978 393.281 C 126.990 394.261, 127.675 395.322, 128.500 395.638 C 129.581 396.053, 130 397.746, 130 401.703 C 130 408.359, 132.260 412.679, 136.194 413.543 C 137.737 413.882, 139 414.570, 139 415.071 C 139 415.575, 143.269 415.875, 148.515 415.742 L 158.029 415.500 161.515 419.183 C 163.432 421.209, 165 423.347, 165 423.933 C 165 424.520, 165.425 425, 165.943 425 C 166.462 425, 167.684 426.350, 168.659 428 C 170.677 431.417, 177.509 432.444, 178.638 429.500 C 178.955 428.675, 179.841 428, 180.607 428 C 181.373 428, 182 427.325, 182 426.500 C 182 424.547, 188.312 424.455, 190.237 426.380 C 190.996 427.139, 193.945 428.080, 196.792 428.471 C 200.311 428.955, 202.692 429.948, 204.233 431.574 C 206.782 434.263, 211 434.840, 211 432.500 C 211 431.500, 212 431, 214 431 C 216 431, 217 431.500, 217 432.500 C 217 434.588, 221.208 434.413, 223.028 432.250 C 223.837 431.288, 225.045 429.281, 225.710 427.791 C 227.585 423.591, 234.028 419.804, 238.649 420.184 C 242.485 420.499, 242.502 420.520, 243.131 425.671 C 244.282 435.103, 248.111 440, 254.333 440 C 257.979 440, 266 448.197, 266 451.923 C 266 453.026, 266.870 454.395, 267.934 454.965 C 270.406 456.287, 277.689 456.312, 278.500 455 C 278.840 454.450, 280.456 454, 282.090 454 C 283.810 454, 285.305 453.368, 285.638 452.500 C 285.955 451.675, 286.611 451, 287.096 451 C 289.493 451, 292 447.350, 292 443.860 C 292 438.291, 292.817 437.002, 296.357 436.986 C 303.779 436.954, 305.980 434.272, 302.574 429.410 C 299.190 424.577, 300.929 408.215, 305.171 404.990 C 305.540 404.709, 306.151 403.247, 306.529 401.740 C 306.907 400.233, 307.569 399, 308 399 C 308.431 399, 309.067 397.868, 309.414 396.485 C 311.120 389.688, 315.103 388.491, 320.404 393.184 C 323.485 395.912, 324 396.986, 324 400.684 C 324 405.396, 326.269 406.589, 329.357 403.500 C 330.182 402.675, 331.270 402, 331.774 402 C 335.514 402, 336.898 395.453, 334.865 387.378 C 334.018 384.015, 334.018 382.582, 334.865 381.735 C 335.489 381.111, 336 379.872, 336 378.983 C 336 376.869, 341.651 365.840, 343.256 364.821 C 343.940 364.386, 345.738 364.024, 347.250 364.015 C 348.762 364.007, 350 363.550, 350 363 C 350 362.450, 350.675 362, 351.500 362 C 352.359 362, 353 361.099, 353 359.894 C 353 358.736, 354.388 356.036, 356.084 353.894 C 359.969 348.989, 363.332 348.646, 364.850 353 C 365.904 356.024, 369.991 357.411, 370.008 354.750 C 370.016 353.387, 372.619 351.965, 380.865 348.818 C 386.637 346.615, 388.181 345.388, 391.978 339.986 C 395.788 334.568, 400.837 330, 403.018 330 C 405.553 330, 409 326.577, 409 324.059 C 409 322.991, 409.450 321.840, 410 321.500 C 410.550 321.160, 411 317.585, 411 313.555 C 411 309.001, 411.565 305.145, 412.494 303.364 C 413.315 301.789, 413.990 298.625, 413.994 296.333 C 413.997 294.042, 414.461 292.013, 415.024 291.825 C 415.587 291.638, 416.297 289.688, 416.603 287.492 C 416.909 285.296, 417.541 282.600, 418.008 281.500 C 418.474 280.400, 419.134 277.813, 419.473 275.750 C 419.813 273.688, 420.408 271.995, 420.795 271.989 C 421.183 271.982, 422.259 270.295, 423.186 268.239 C 424.114 266.182, 425.660 262.745, 426.622 260.600 C 429.186 254.880, 429.279 233.143, 426.750 230.610 C 424.517 228.374, 424.263 220, 426.429 220 C 431.094 220, 431 221.522, 431 145.929 C 431 78.165, 430.919 75, 429.191 75 C 428.196 75, 426.509 75.661, 425.441 76.468" stroke="none" fill="#ba1f0d" fill-rule="evenodd"/>
</svg>